<svg width="65" height="60" fill="none" xmlns="http://www.w3.org/2000/svg"><path d="M38.591 7.624L32.498 2l-6.092 5.624-14.222 13.128L17.5 25.5c2.007-1.704 3.094-4 6-4H42c2.773 0 3.493 2.296 5.5 4l5.313-4.748L38.59 7.624z" fill="#7080A5"/><path d="M43.686 2L40.59 4.857l14.222 13.128 2.997 2.767L52 25.5 46.5 30v4.5L64 20.752 43.686 2zm-23.37 0l3.095 2.857L9.19 17.985l-2.997 2.767L12 25.5l5.5 4.5v4.5L.001 20.752 20.316 2z" fill="#7080A5"/><rect x="19.5" y="24" width="24.917" height="33" rx="5" fill="#7080A5"/></svg>