<svg width="65" height="60" fill="none" xmlns="http://www.w3.org/2000/svg"><path d="M48.95 19.887v-.628c0-2.423-1.26-4.574-3.21-5.926V9.63h5.617V5.185H45.74v-.74C45.74 2 43.574 0 40.925 0c-2.648 0-4.814 2-4.814 4.444v.741H19.259c-5.585 0-10.157 4.072-10.42 9.167-4.155.986-7.235 4.472-7.235 8.61 0 4.902 4.32 8.89 9.63 8.89 5.31 0 9.63-3.988 9.63-8.89 0-4.126-3.063-7.604-7.2-8.6.25-2.648 2.663-4.732 5.595-4.732H36.11v3.703c-1.95 1.352-3.21 3.503-3.21 5.926v.628c-8.438 2.988-14.445 10.544-14.445 19.372 0 6.49 3.277 12.565 8.828 16.482V60h27.284v-4.26c5.55-3.916 8.827-9.991 8.827-16.48 0-8.829-6.007-16.385-14.445-19.373zm0 20.854H32.9v-4.445h16.05v4.445z" fill="#70C3C0"/></svg>