<svg width="61" height="60" fill="none" xmlns="http://www.w3.org/2000/svg"><path d="M10.5 50h5V25a2.5 2.5 0 012.5-2.5h30v-5a2.5 2.5 0 00-2.5-2.5h-7.627c-.63-5.61-5.348-10-11.123-10-5.775 0-10.492 4.39-11.123 10H8a2.5 2.5 0 00-2.5 2.5V45a5 5 0 005 5zm16.25-40a6.26 6.26 0 016.125 5h-12.25a6.26 6.26 0 016.125-5z" fill="#83BC82"/><path d="M51 25.5H21a2.5 2.5 0 00-2.5 2.5v20a5 5 0 005 5h25a5 5 0 005-5V28a2.5 2.5 0 00-2.5-2.5zm-15 16c-6.892 0-11-4.108-11-11h3.5c0 4.135 3.365 7.5 7.5 7.5s7.5-3.365 7.5-7.5H47c0 6.892-4.108 11-11 11z" fill="#83BC82"/></svg>