<svg width="65" height="60" fill="none" xmlns="http://www.w3.org/2000/svg"><g clip-path="url(#clip0_82_9569)"><path d="M5.619 46.013H52.49c3.103 0 5.62-2.323 5.62-5.188v-2.27h4.081c1.55 0 2.809-1.16 2.809-2.592V23.937c0-1.43-1.26-2.593-2.809-2.593H58.11v-2.169c0-2.864-2.514-5.188-5.619-5.188H5.62C2.519 13.987 0 16.31 0 19.175v21.65c-.001 2.865 2.517 5.188 5.619 5.188zm11.893-19.545h4.69c1.617-3.782 5.65-6.473 10.372-6.473h2.279c1.737 0 3.151 1.244 3.29 2.816h5.42c1.376 0 2.488 1.029 2.488 2.295 0 1.273-1.112 2.299-2.487 2.299h-5.395v5.018h5.395c1.375 0 2.487 1.027 2.487 2.294 0 1.268-1.112 2.294-2.487 2.294h-5.395v.252c0 1.694-1.485 3.064-3.317 3.064h-2.278c-4.918 0-9.088-2.932-10.566-6.972H17.51c-2.059 0-3.73-1.543-3.73-3.444 0-1.902 1.671-3.443 3.73-3.443z" fill="#7DB7A6"/></g><defs><clipPath id="clip0_82_9569"><path fill="#fff" d="M0 0h65v60H0z"/></clipPath></defs></svg>