<svg width="61" height="60" fill="none" xmlns="http://www.w3.org/2000/svg"><path d="M54.343 36.01a2.865 2.865 0 00-.885-.218l.026-.062-8.72-3.78-.006-.002L30.99 25.98v7.12l10.596-1.983-.356 1.375-1.384 5.353-3.278.118-5.578.2v9.713l5.783 2.507 8.72 3.78.01-.022c.206.168.433.307.68.414 2.674 1.142 6.67-2.083 8.922-7.204 2.252-5.12 1.91-10.2-.763-11.342zm.061 11.04c-1.014 2.304-2.716 3.794-3.806 3.33-1.09-.466-1.15-2.71-.135-5.014 1.015-2.305 2.717-3.795 3.806-3.33 1.09.465 1.15 2.709.136 5.013zM20.036 4.103c-5.618 0-10.172 2.344-10.172 5.234 0 .084.004.168.011.253v10.777c-1.489 1.305-2.912 3.289-3.954 5.693-2.164 4.99-1.883 9.947.602 11.203l-.002.005.146.064 3.45 1.495v13.449h.006c.165 2.779 4.599 5.008 10.038 5.008 5.44 0 9.876-2.23 10.04-5.008h.005V9.8h-.04a2.68 2.68 0 00.042-.465c0-2.892-4.555-5.232-10.172-5.232zm0 .758c2.527 0 4.577.954 4.577 2.13s-2.05 2.13-4.577 2.13c-2.528 0-4.577-.954-4.577-2.13s2.05-2.13 4.577-2.13zm-5.447 30.864l-1.39-1.46 4.311-1.506-6.89-10.206 6.864-1.078 6.643 13.93-2.797 1.385 6.052 12.375-12.793-13.442v.002z" fill="#596B79"/></svg>