<svg width="61" height="60" fill="none" xmlns="http://www.w3.org/2000/svg"><path d="M57.892 41.778h-8.045c-.07 0-.138.018-.207.023a2.727 2.727 0 00-2.667-2.126h-14.38c-1.507 0-2.8 1.175-2.8 2.683v4.048H13.445c-3.66 0-6.636-2.94-6.636-6.599 0-3.66 2.977-6.618 6.635-6.618l27.388.024c7.139 0 12.947-5.826 12.947-12.964 0-7.139-5.808-12.964-12.947-12.964h-9.358v-4.2c0-1.507-1.154-2.741-2.661-2.741h-14.38a2.727 2.727 0 00-2.667 2.126c-.069-.005-.137-.023-.207-.023H3.515C2.008 2.447.767 3.705.767 5.213v10.301c0 1.508 1.24 2.708 2.748 2.708h8.045c.07 0 .138-.018.207-.023a2.727 2.727 0 002.667 2.126h14.38c1.507 0 2.66-1.175 2.66-2.683v-4.048h9.359c3.66 0 6.637 3 6.637 6.66 0 3.659-2.978 6.647-6.635 6.647l-27.389-.008C6.308 26.893.5 32.666.5 39.804c0 7.139 5.808 12.911 12.946 12.911h16.346v4.2c0 1.507 1.294 2.741 2.801 2.741h14.38a2.727 2.727 0 002.667-2.126c.069.005.137.023.207.023h8.044c1.508 0 2.609-1.258 2.609-2.766V44.486c0-1.508-1.1-2.708-2.608-2.708zM9.6 15.067H4.553v-3.155H9.6v3.155zm0-6.31H4.553V5.602H9.6v3.155zm47.113 45.64h-5.048v-3.154h5.048v3.155zm0-6.309h-5.048v-3.155h5.048v3.155z" fill="#7FAA3E"/></svg>