<svg width="28" height="28" fill="none" xmlns="http://www.w3.org/2000/svg"><path d="M8.39 5.25h1.819c.812 0 1.217 0 1.523.22.305.22.434.605.69 1.375l.635 1.905" stroke="#fff" stroke-width="1.5" stroke-linecap="round"/><path d="M24.724 20.416H13.7c-.17 0-.255 0-.32-.007a1.167 1.167 0 01-1.011-1.403c.013-.063.04-.144.094-.306.06-.18.09-.27.123-.349a2.333 2.333 0 011.982-1.428c.086-.006.18-.006.37-.006h6.286" stroke="#fff" stroke-width="1.5" stroke-linecap="round" stroke-linejoin="round"/><path d="M20.85 16.917H17.3c-1.492 0-2.238 0-2.823-.386-.584-.385-.878-1.07-1.466-2.443l-.197-.46c-.944-2.203-1.416-3.305-.898-4.091.519-.787 1.718-.787 4.115-.787h6.161c2.682 0 4.023 0 4.53.872.505.871-.16 2.036-1.491 4.364l-.33.58c-.657 1.146-.984 1.72-1.527 2.035-.544.316-1.204.316-2.526.316z" stroke="#fff" stroke-width="1.5" stroke-linecap="round"/><path d="M24.141 24.5a1.167 1.167 0 100-2.333 1.167 1.167 0 000 2.333zm-9.334 0a1.167 1.167 0 100-2.334 1.167 1.167 0 000 2.334z" fill="#fff"/><path d="M19 11v4m-2-2h4" stroke="#fff" stroke-width="1.5" stroke-linecap="round"/></svg>