<svg width="42" height="44" fill="none" xmlns="http://www.w3.org/2000/svg"><path d="M6.765 8.563h2.678c1.196 0 1.794 0 2.244.338.45.338.639.93 1.017 2.112l.935 2.925" stroke="#000" stroke-width="2" stroke-linecap="round"/><path d="M30.825 31.854h-16.24c-.25 0-.376 0-.471-.011-1.01-.118-1.702-1.119-1.49-2.155.02-.097.06-.222.14-.47.088-.276.132-.414.18-.536.5-1.246 1.628-2.094 2.92-2.193.126-.01.265-.01.544-.01h9.26" stroke="#000" stroke-width="2" stroke-linecap="round" stroke-linejoin="round"/><path d="M25.117 26.48H19.89c-2.198 0-3.297 0-4.158-.593-.86-.591-1.294-1.645-2.16-3.751l-.29-.706c-1.391-3.384-2.087-5.076-1.323-6.284.764-1.209 2.53-1.209 6.062-1.209h9.075c3.951 0 5.927 0 6.672 1.34.745 1.338-.235 3.126-2.196 6.702l-.487.89c-.966 1.761-1.448 2.642-2.248 3.126-.8.484-1.774.484-3.72.484z" stroke="#000" stroke-width="2" stroke-linecap="round"/><path d="M29.965 38.125c.95 0 1.719-.802 1.719-1.792s-.77-1.791-1.719-1.791c-.949 0-1.718.802-1.718 1.791 0 .99.769 1.792 1.718 1.792zm-13.748 0c.949 0 1.718-.802 1.718-1.792s-.769-1.791-1.718-1.791c-.95 0-1.719.802-1.719 1.791 0 .99.77 1.792 1.719 1.792z" fill="#000"/></svg>