<svg width="65" height="60" fill="none" xmlns="http://www.w3.org/2000/svg"><path fill-rule="evenodd" clip-rule="evenodd" d="M7.5 2.553C7.5 1.42 8.42.5 9.553.5h24.638c1.134 0 2.054.92 2.054 2.053v54.894c0 1.134-.92 2.053-2.053 2.053H9.552A2.053 2.053 0 017.5 57.447V2.553zm32.257-.5A3.043 3.043 0 0039.004.5H56.15c1.134 0 2.053.92 2.053 2.053v54.894c0 1.134-.92 2.053-2.053 2.053H39.004c.387-.425.656-.96.753-1.553H53.98a3.053 3.053 0 003.053-3.053V5.106a3.053 3.053 0 00-3.053-3.053H39.757zm-29.032 0c-.981 0-1.777.796-1.777 1.777v9.574c0 .981.796 1.777 1.777 1.777H19.8c.981 0 1.777-.796 1.777-1.777V3.83c0-.981-.796-1.777-1.777-1.777h-9.075zm1.776 9.575V5.606h5.522v6.022h-5.522zm27.297 38.808V5.606h13.68v48.788h-3.723v-.905a3.053 3.053 0 00-3.053-3.053h-6.904zm.383 3.958v-.405h6.021v.405h-6.021z" fill="#88C6A4"/></svg>