<svg width="61" height="60" fill="none" xmlns="http://www.w3.org/2000/svg"><g clip-path="url(#clip0_82_9545)"><path d="M31.843 5.037c-6.93-.372-13.526 2.06-18.55 6.828C8.268 16.634 5.5 23.075 5.5 30.001c0 7.872 3.776 15.378 10.101 20.078a2.5 2.5 0 102.984-4.014c-5.139-3.816-8.085-9.671-8.085-16.064 0-5.541 2.214-10.695 6.235-14.509 4.019-3.812 9.28-5.74 14.846-5.462 10.067.529 18.363 8.828 18.89 18.891.467 8.883-5.066 17.107-13.453 19.996a2.947 2.947 0 01-2.696-.406A3.11 3.11 0 0133 45.952v-5.14c2.904-1.036 5-3.81 5-7.06V21.304a2.5 2.5 0 00-5 0v3.699h-5v-3.7a2.5 2.5 0 00-5 0v12.449c0 3.248 2.096 6.023 5 7.06v5.142a8.158 8.158 0 003.42 6.63 7.932 7.932 0 004.624 1.502c.87 0 1.746-.145 2.602-.441 10.485-3.613 17.4-13.886 16.818-24.984C54.806 16.074 44.43 5.697 31.843 5.037z" fill="#5B66E0"/></g><defs><clipPath id="clip0_82_9545"><path fill="#fff" transform="translate(.5)" d="M0 0h60v60H0z"/></clipPath></defs></svg>