<svg width="65" height="62" fill="none" xmlns="http://www.w3.org/2000/svg"><g clip-path="url(#clip0_82_9580)" fill="#C87A7A"><path d="M17.138 27.034c0 6.555 3.659 12.217 8.92 14.81-1.765-3.9-2.67-9.373-2.67-14.81 0-5.438.905-10.91 2.67-14.811-5.262 2.593-8.92 8.255-8.92 14.81zm10.488 0c0 10.768 3.416 16.32 4.874 16.32 1.457 0 4.873-5.552 4.873-16.32 0-10.769-3.416-16.322-4.873-16.322-1.458 0-4.874 5.553-4.874 16.322zm20.237 0c0-6.556-3.659-12.218-8.92-14.811 1.765 3.9 2.669 9.373 2.669 14.81 0 5.438-.904 10.91-2.669 14.811 5.261-2.593 8.92-8.255 8.92-14.81zM41.612 2.021C41.612.905 40.663 0 39.492 0H25.509c-1.17 0-2.12.905-2.12 2.021v2.476h18.224V2.021zM23.389 52.045c0 1.117.948 2.022 2.119 2.022h1.549a5.1 5.1 0 00-.172 1.314v4.598c0 1.116.949 2.021 2.12 2.021 1.17 0 2.118-.905 2.118-2.021V55.38c0-.725.618-1.314 1.378-1.314.759 0 1.377.59 1.377 1.314v4.598c0 1.116.949 2.021 2.119 2.021 1.17 0 2.119-.905 2.119-2.021V55.38a5.1 5.1 0 00-.172-1.314h1.55c1.17 0 2.118-.905 2.118-2.022V49.57H23.39v2.475z"/><path d="M12.9 27.033c0-8.96 5.598-16.586 13.351-19.302h-3.403c-4.206.954-8.07 2.531-11.327 4.667-5.875 3.852-9.11 9.05-9.11 14.635 0 5.585 3.235 10.783 9.11 14.636 3.256 2.135 7.121 3.713 11.327 4.666h3.403C18.498 43.62 12.9 35.993 12.9 27.033zm40.578-14.635c-3.256-2.135-7.121-3.713-11.327-4.667h-3.403C46.502 10.447 52.1 18.074 52.1 27.034S46.502 43.62 38.748 46.336h3.403c4.206-.954 8.071-2.532 11.327-4.667 5.876-3.853 9.111-9.05 9.111-14.635 0-5.586-3.235-10.783-9.11-14.636z"/></g><defs><clipPath id="clip0_82_9580"><path fill="#fff" d="M0 0h65v62H0z"/></clipPath></defs></svg>