<svg width="49" height="48" fill="none" xmlns="http://www.w3.org/2000/svg"><g clip-path="url(#clip0_82_8566)" fill="#22BC3E"><path d="M47.522 27.879L36.716 17.017l.009.009a13.56 13.56 0 00.478-3.526C37.203 6.045 31.19 0 23.772 0a13.32 13.32 0 00-3.577.5 2.974 2.974 0 00-1.647-.5H3.624A2.993 2.993 0 00.64 3v15c0 .796.315 1.558.874 2.121l26.863 27a2.967 2.967 0 002.11.879c.764 0 1.529-.293 2.11-.879l14.925-15a3.009 3.009 0 000-4.242zM23.772 1.501c6.594 0 11.939 5.372 11.939 12a13.1 13.1 0 01-.22 2.286l-1.321-1.328-.018-.018c.028-.3.066-.654.066-.94 0-5.798-4.677-10.5-10.446-10.5a10.544 10.544 0 00-2.738.376 10.45 10.45 0 00-6.214 4.731c-.257.43-.492.874-.687 1.341a10.513 10.513 0 00-.808 4.052c0 .463.098 1.363.098 1.363s-.549.136-.844.136c-.226 0-.444-.03-.655-.078-.029-.006-.025-.006 0 0a12.225 12.225 0 01-.091-1.421 12 12 0 011.563-5.922 11.975 11.975 0 016.447-5.399 11.801 11.801 0 013.929-.68zM32.7 12.98l-8.412-8.454c4.532.26 8.152 3.9 8.412 8.455zM15.563 12c0 .743-.276 1.414-.724 1.934-.006-.144-.022-.286-.022-.433 0-.976.16-1.913.445-2.793.188.393.301.828.301 1.292zm-5.223 1.5c0 .158.017.313.023.47A2.948 2.948 0 019.594 12a3 3 0 011.348-2.505 13.55 13.55 0 00-.602 4.005zm36.126 17.56l-14.924 15c-.282.284-.656.44-1.055.44-.398 0-.773-.156-1.055-.44l-26.863-27A1.518 1.518 0 012.132 18V3c0-.828.67-1.5 1.492-1.5h14.012a13.505 13.505 0 00-5.924 6.086A4.494 4.494 0 008.102 12c0 2.485 2.005 4.5 4.477 4.5 2.472 0 4.477-2.015 4.477-4.5a4.49 4.49 0 00-1.077-2.922 8.954 8.954 0 016.306-4.443l24.181 24.304c.282.284.438.66.438 1.061 0 .4-.156.777-.438 1.06z"/><path d="M38.04 28.41a2.233 2.233 0 00-3.166 0l-5.958 5.988c-.872.877-.904 2.337-.03 3.214.87.878 2.318.85 3.191-.027l5.964-5.992h-.002a2.261 2.261 0 00.001-3.183zm-1.056 2.122l-5.94 5.97c-.291.293-.814.343-1.104.05-.292-.294-.253-.806.038-1.099l5.952-5.982a.743.743 0 011.055 0 .753.753 0 010 1.061zm-4.914-4.939a2.261 2.261 0 00.001-3.183 2.233 2.233 0 00-3.166 0l-5.957 5.988c-.873.877-.905 2.337-.032 3.214.872.878 2.32.85 3.193-.027l5.963-5.992h-.001zm-1.054-1.06l-5.94 5.97c-.292.293-.815.342-1.105.049-.291-.293-.253-.806.039-1.099l5.951-5.982a.743.743 0 011.055 0 .753.753 0 010 1.061zm-4.918-4.943a2.261 2.261 0 000-3.183 2.233 2.233 0 00-3.165 0l-5.958 5.988c-.872.877-.904 2.337-.031 3.214.871.878 2.319.85 3.192-.027l5.963-5.992h-.001zm-1.055-1.06l-5.94 5.97c-.292.293-.815.342-1.104.049-.292-.293-.254-.806.038-1.099l5.951-5.982a.743.743 0 011.056 0 .753.753 0 01-.001 1.061z"/></g><defs><clipPath id="clip0_82_8566"><path fill="#fff" transform="translate(.64)" d="M0 0h47.756v48H0z"/></clipPath></defs></svg>