<svg width="49" height="48" fill="none" xmlns="http://www.w3.org/2000/svg"><g clip-path="url(#clip0_82_8544)" fill="#22BC3E"><path d="M47.175.58a2.975 2.975 0 00-2.662-.44L31.258 4.346 18.745.154a2.964 2.964 0 00-1.975.031L2.592 5.435A3 3 0 00.64 8.25V45c0 .956.453 1.855 1.22 2.42a2.976 2.976 0 002.663.44l13.28-4.215L31.08 47.86a2.96 2.96 0 001.843-.014l13.431-4.5a3 3 0 002.041-2.846V3c0-.955-.453-1.855-1.22-2.42zm-2.214.99a1.496 1.496 0 011.333.22c.381.281.61.734.61 1.21v18.814c-.175-.026-.356-.062-.547-.099-.87-.174-1.417-.39-2.074-1.159-.776-.891-.325-2.332-1.18-3.085-.33-.284-.646-.378-.965-.378-.615-.001-1.24.35-1.996.378-1.244.055-2.099.567-3.13.567-.319 0-.654-.049-1.024-.175-1.001-.345-1.385-1.133-2.371-1.546a4.952 4.952 0 00-.89-.28v-4.644c.84.3 1.59.58 2.667.683.59.06 1.067.285 1.545.285.269 0 .538-.072.827-.285.894-.67 1.663-1.891 1.188-3.08-.31-.784-1.053-.49-1.489-1.16-.467-.737-.246-1.412-.586-2.308.212-.657.573-1.119.773-1.638l7.309-2.32zm-9.476 4.493c.082.22.109.44.14.72.057.487.136 1.156.58 1.859.45.69 1.041.948 1.397 1.085.01.397-.373.873-.708 1.13a4.511 4.511 0 01-.377-.084 6.455 6.455 0 00-.976-.189c-.861-.083-1.463-.298-2.223-.572a38.816 38.816 0 00-.593-.207V5.454l2.957-.938c-.078.172-.158.347-.224.55a1.51 1.51 0 00.027.998zm-4.251 9.848c-.406.008-.822.03-1.29.03-.153 0-.31-.004-.474-.01a6.143 6.143 0 00-.259-.005c-.826 0-1.458.16-2.164.16a4.15 4.15 0 01-1.132-.155c-.963-.269-1.762-.141-2.372-1.15-.709-1.196-.673-2.638 0-3.863.704-1.268 1.766-.98 2.966-1.154.22-.03.429-.045.629-.045 1.49 0 2.473.77 4.095 1.194v4.998zm-7.132 17.252c-.395.967-1.126 1.169-1.944 1.169a6.86 6.86 0 01-.427-.015c-.88-.052-1.275-.68-2.075-1.154-.761-.452-1.288-1.07-1.853-1.556v-9.735c.557.756.776 1.527 1.553 2.033.301.196.588.265.869.265.672 0 1.309-.397 2.02-.397.215 0 .438.037.67.133 1.192.499 2.205.808 2.664 2.323.3.975.309 1.722 0 2.69-.305.979-1.196.927-1.477 1.927-.25.854.321 1.513 0 2.317zM2.132 14.367c.653-.005 1.285-.05 2.118-.092 1.041-.058 1.788-.612 2.641-.612.287 0 .585.062.911.226.998.49 1.184 1.555 2.079 2.308 1.35 1.139 2.422.969 3.852 1.933 1.066.719 1.804 1.318 2.577 2.09v10.657c-.071-.01-.135-.03-.21-.032-.277-.009-.529-.042-.764-.042-.362 0-.687.077-1.013.432-.562.608-.078 1.64-.59 2.309-.37.496-.788.65-1.242.65-.442 0-.919-.144-1.425-.264-1.018-.233-1.355-1.294-2.368-1.541-.38-.092-.684-.165-.992-.165-.245 0-.493.046-.786.165-1.26.515-1.47 1.941-2.08 3.472-.498 1.268-.003 2.617-.886 3.462-.429.412-.84.539-1.285.539-.172 0-.351-.02-.536-.048l-.001-25.447zm.977-7.524l13.2-4.889v16.233a20.104 20.104 0 00-1.744-1.302c-.807-.545-1.506-.792-2.123-1.011-.624-.22-1.074-.38-1.603-.827-.223-.188-.4-.455-.605-.766-.378-.572-.849-1.286-1.778-1.741a3.47 3.47 0 00-1.565-.378c-.674 0-1.234.193-1.727.363-.364.125-.68.234-.996.251l-.602.034c-.547.03-.988.054-1.434.057V8.25c0-.625.392-1.191.977-1.407zm.965 39.587a1.486 1.486 0 01-1.332-.22 1.507 1.507 0 01-.61-1.21v-3.678c.175.021.352.041.537.041.888 0 1.646-.312 2.315-.953.937-.896 1.013-2.038 1.07-2.87.027-.421.054-.818.175-1.125.134-.337.252-.675.365-1 .36-1.031.552-1.497.887-1.635.133-.054.192-.054.224-.054.135 0 .37.057.643.123.11.027.295.206.492.395.413.396.979.94 1.893 1.15l.27.066c.446.11.95.236 1.486.236.981 0 1.824-.432 2.436-1.25.533-.698.557-1.481.574-2l.005-.135.127.009c.136.01.277.02.425.024.088.003.17.02.254.05v10.152L4.074 46.43zm14.178-4.215l-.45-.142v-8.435c.315.28.667.563 1.097.818.18.106.35.24.53.382.49.386 1.16.914 2.215.977a7.9 7.9 0 00.514.017c1.636 0 2.755-.706 3.325-2.099.334-.837.196-1.557.104-2.033-.034-.173-.07-.37-.052-.433l.013-.038c.022-.03.137-.12.22-.187.355-.28.948-.751 1.236-1.676.393-1.233.394-2.308 0-3.582-.628-2.074-2.085-2.674-3.256-3.156l-.258-.108a3.25 3.25 0 00-1.246-.247c-.577 0-1.07.147-1.463.265-.217.066-.442.132-.556.132-.015 0-.028-.005-.058-.024-.215-.14-.355-.369-.605-.795-.208-.357-.468-.8-.855-1.242-.324-.37-.62-.696-.905-.997V1.5c.161 0 .32.026.472.077L30.786 5.77l.448.15v3.424c-.377-.12-.731-.253-1.091-.398-.883-.357-1.797-.726-3.005-.726-.271 0-.551.019-.83.058a7.892 7.892 0 01-.67.06c-.977.059-2.451.149-3.397 1.849-.951 1.735-.942 3.736.02 5.363.818 1.352 1.963 1.567 2.721 1.71.189.036.367.07.535.116.508.141 1.009.21 1.531.21.425 0 .802-.044 1.166-.085.336-.038.654-.075.999-.075l.198.003c.185.009.362.012.534.012.31 0 .6-.01.878-.02.141-.005.276-.007.412-.01v28.925l-12.983-4.12zm27.63-.292L32.727 46.33V17.588c.101.033.202.067.312.112.264.11.469.284.751.524.414.35.928.787 1.715 1.057.505.173.997.257 1.508.257.713 0 1.328-.167 1.871-.314.446-.12.866-.234 1.325-.255.547-.02 1.02-.151 1.4-.257.185-.051.394-.11.504-.118.058.106.111.444.147.67.104.643.245 1.527.901 2.28.909 1.064 1.787 1.418 2.905 1.643l.078.015c.246.047.5.089.761.12V40.5c0 .647-.41 1.219-1.021 1.423z"/><path d="M41.908 29.491c-.505-.155-.983-.302-1.5-.302a2.39 2.39 0 00-1.346.407c-.471.313-.607.699-.638.966-.083.724.45 1.293 1.015 1.894.378.402.948 1.01.837 1.298-.071.193-.288.297-.73.475-.55.222-1.383.556-1.563 1.553-.101.554.024 1.063.362 1.47.476.573 1.337.888 2.428.888 1.111 0 2.205-.323 2.93-.867 1.234-.951 1.707-2.34 1.407-4.128-.3-1.823-1.391-3.081-3.202-3.654zm.895 6.586c-.455.342-1.253.564-2.03.564-.686 0-1.137-.174-1.282-.349-.025-.03-.069-.083-.04-.24.027-.149.142-.225.649-.428.533-.215 1.264-.509 1.572-1.337.442-1.165-.477-2.143-1.148-2.859-.178-.189-.426-.453-.549-.632.392-.208.839-.072 1.533.142 1.225.388 1.921 1.19 2.13 2.456.21 1.248-.05 2.078-.835 2.683z"/></g><defs><clipPath id="clip0_82_8544"><path fill="#fff" transform="translate(.64)" d="M0 0h47.756v48H0z"/></clipPath></defs></svg>