<svg width="49" height="48" fill="none" xmlns="http://www.w3.org/2000/svg"><path d="M24.518 0C14.628 0 6.609 8.059 6.609 18c0 4.259 1.867 8.003 3.934 11.25L23.3 47.367a1.49 1.49 0 002.436 0L38.493 29.25c1.975-2.672 3.934-6.991 3.934-11.25 0-9.941-8.018-18-17.909-18zm12.004 29.25h-.008l-11.996 16.5-11.997-16.5h-.007C10.69 26.602 8.102 22.35 8.102 18c0-9.113 7.35-16.5 16.416-16.5S40.934 8.887 40.934 18c0 4.35-2.775 8.836-4.412 11.25z" fill="#22BC3E"/><path d="M24.518 10.5c-4.121 0-7.462 3.358-7.462 7.5 0 4.142 3.34 7.5 7.462 7.5 4.121 0 7.462-3.358 7.462-7.5 0-4.142-3.34-7.5-7.462-7.5zm0 13.5c-3.297 0-5.97-2.686-5.97-6 0-3.313 2.673-6 5.97-6 3.297 0 5.97 2.687 5.97 6 0 3.314-2.673 6-5.97 6z" fill="#22BC3E"/><path d="M24.518 7.5c-5.77 0-10.447 4.701-10.447 10.5s4.677 10.5 10.447 10.5S34.965 23.799 34.965 18 30.288 7.5 24.518 7.5zm0 19.5c-4.945 0-8.954-4.03-8.954-9s4.009-9 8.954-9 8.954 4.03 8.954 9-4.009 9-8.954 9z" fill="#22BC3E"/></svg>