<svg width="49" height="48" fill="none" xmlns="http://www.w3.org/2000/svg"><g clip-path="url(#clip0_82_8551)" fill="#22BC3E"><path d="M23.986 24.537a.73.73 0 001.044 0l4.314-4.38c.535-.544 1.074-1.329 1.074-2.157 0-1.657-1.323-3-2.955-3-.816 0-1.554.336-2.09.879l-.865.873-.866-.873A2.924 2.924 0 0021.553 15c-1.632 0-2.955 1.343-2.955 3 0 .828.527 1.602 1.062 2.144l4.326 4.393zM21.553 16.5c.409 0 .778.168 1.045.44l1.388 1.403a.73.73 0 001.044 0l1.388-1.404a1.46 1.46 0 011.045-.439A1.49 1.49 0 0128.94 18c0 .415-.355.807-.623 1.078l-3.809 3.867-3.809-3.867c-.268-.271-.623-.663-.623-1.078 0-.828.662-1.5 1.477-1.5z"/><path d="M39.281 0H9.734C8.087 0 6.779 1.36 6.779 3v42.75a2.25 2.25 0 001.414 2.098 2.196 2.196 0 002.439-.58L23.778 33.75s.291-.375.73-.375c.438 0 .73.377.73.377l13.145 13.515a2.2 2.2 0 002.438.581 2.251 2.251 0 001.415-2.098V3c0-1.611-1.338-3-2.955-3zm1.478 45.375c0 .586-.866 1.102-1.478.48L25.985 32.368s-.539-.682-1.477-.682c-.923 0-1.478.717-1.478.717S10.426 45.27 9.843 45.861c-.584.592-1.587.135-1.587-.483V9H40.76v36.375zm0-37.875H8.256V3c0-.828.662-1.5 1.478-1.5H39.28A1.49 1.49 0 0140.76 3v4.5z"/></g><defs><clipPath id="clip0_82_8551"><path fill="#fff" transform="translate(.87)" d="M0 0h47.276v48H0z"/></clipPath></defs></svg>