<svg width="22" height="22" fill="none" xmlns="http://www.w3.org/2000/svg"><path d="M11.686 17.151h0c.155-.077.241-.12.303-.157a.526.526 0 00.048-.03.167.167 0 00.035-.055.548.548 0 00.006-.057c.004-.072.005-.169.005-.342v-4.031c0-.178-.001-.377.046-.572h0c.04-.17.108-.333.2-.482m-.643 5.726l1.508-5.733-.462-.461.01-.01m-1.056 6.204l-.733.367s0 0 0 0c-.364.182-.592.295-.764.362a.937.937 0 01-.149.048.166.166 0 01-.083-.052.94.94 0 01-.023-.154 10.675 10.675 0 01-.018-.845v-4.404m1.77 4.678l-1.77-4.678m2.413-1.049l.639.393-.64-.392s0 0 0 0zm0 0a2.393 2.393 0 01.4-.464.685.685 0 01.012-.012m0 0l4.632-4.632a5.53 5.53 0 00.186-.194.17.17 0 00.019-.043l.002-.037c.003-.047.003-.11.003-.226v-.683c0-.269-.001-.425-.01-.54a.663.663 0 00-.013-.093.165.165 0 00-.06-.061.662.662 0 00-.093-.012 7.614 7.614 0 00-.541-.01H5.132c-.269 0-.425 0-.54.01a.656.656 0 00-.093.012.166.166 0 00-.06.06.658.658 0 00-.013.093c-.01.115-.01.272-.01.541v.676a5.758 5.758 0 00.005.27c.004.014.01.029.018.043l.025.029c.033.035.078.081.162.165l-.525.525.525-.525 4.64 4.64s0 0 0 0l.033.032c.126.126.266.266.371.437m3.071-.477l-2.87.96a1.668 1.668 0 00-.2-.483m0 0l-.64.392.639-.392s0 0 0 0zm.245 1.048c0-.174 0-.372-.046-.566l.046.566zM4.441 6.124h0zM17.505 4.44s0 0 0 0h0z" stroke="#fff" stroke-width="1.5" stroke-linecap="round" stroke-linejoin="round"/></svg>