<svg width="65" height="60" fill="none" xmlns="http://www.w3.org/2000/svg"><path d="M48.393 0H16.607c-2.865 0-5.198 2.165-5.198 4.808V55.19c0 2.645 2.333 4.81 5.198 4.81h31.786c2.852 0 5.197-2.165 5.197-4.81V4.808C53.59 2.165 51.245 0 48.393 0zm1.945 47.555v2.033H14.65V8.214h35.688v39.34z" fill="#E19369"/><g clip-path="url(#clip0_82_9532)"><path fill-rule="evenodd" clip-rule="evenodd" d="M33.702 20.195l7 2.625A2 2 0 0142 24.693v5.363a9 9 0 01-4.975 8.05l-3.354 1.676a1.5 1.5 0 01-1.342 0l-3.354-1.677A9 9 0 0124 30.055v-5.362a2 2 0 011.298-1.873l7-2.625a2 2 0 011.404 0zM33 32a1 1 0 100 2 1 1 0 000-2zm0-7a1 1 0 00-.993.883L32 26v4a1 1 0 001.993.117L34 30v-4a1 1 0 00-1-1z" fill="#E19369"/></g><defs><clipPath id="clip0_82_9532"><path fill="#fff" transform="translate(21 18)" d="M0 0h24v24H0z"/></clipPath></defs></svg>