<svg width="61" height="60" fill="none" xmlns="http://www.w3.org/2000/svg"><path d="M30.5 12.5A17.5 17.5 0 0013 30v2.5h5.2c1.675 0 2.5 0 3.15.325.575.3 1.025.75 1.325 1.325.325.625.325 1.475.325 3.15v10.4c0 1.675 0 2.5-.325 3.15-.3.575-.75 1.025-1.325 1.325-.625.325-1.475.325-3.15.325H16c-2.8 0-4.2 0-5.25-.55a5 5 0 01-2.2-2.175C8.05 48.75 8 47.475 8 45V30a22.5 22.5 0 0145 0v15c0 2.475-.025 3.75-.55 4.75a5 5 0 01-2.175 2.2c-1.075.55-2.475.55-5.275.55h-2.2c-1.675 0-2.5 0-3.15-.325a3 3 0 01-1.325-1.325C38 50.225 38 49.375 38 47.7V37.3c0-1.675 0-2.5.325-3.15.3-.575.75-1.025 1.325-1.325.625-.325 1.475-.325 3.15-.325H48V30a17.5 17.5 0 00-17.5-17.5z" fill="#9F7DA7"/></svg>