<svg width="25" height="60" fill="none" xmlns="http://www.w3.org/2000/svg"><path fill-rule="evenodd" clip-rule="evenodd" d="M20.66 20.98c0 .36-.2.673-.493.837a12.688 12.688 0 014.442 9.676v22.422A6.092 6.092 0 0118.524 60H6.475a6.092 6.092 0 01-6.084-6.085V31.493a12.69 12.69 0 014.442-9.676.957.957 0 01-.493-.837v-7.248c0-.529.429-.957.957-.957h2.394V7.149c0-.528.428-.957.957-.957h.473l.952-5.4A.958.958 0 0111.016 0h2.967c.465 0 .863.334.943.791l.952 5.401h.473c.53 0 .958.429.958.957v5.625h2.393c.529 0 .957.43.957.958v7.248zM13.933 6.192l-.754-4.277h-1.36l-.754 4.277h2.868z" fill="#7D7D7D"/></svg>