<svg width="26" height="26" fill="none" xmlns="http://www.w3.org/2000/svg"><path d="M20.988 25H5.012A4.021 4.021 0 011 20.988V5.012A4.021 4.021 0 015.011 1h15.977A4.021 4.021 0 0125 5.011v15.977A4.009 4.009 0 0120.988 25z" stroke="#22BC3E" stroke-width="2"/><path d="M8.648 17.361a6.121 6.121 0 004.357 1.804c1.646 0 3.184-.64 4.356-1.804a6.121 6.121 0 001.804-4.356c0-1.646-.64-3.194-1.804-4.357a6.12 6.12 0 00-4.356-1.803 6.12 6.12 0 00-4.357 1.803 6.12 6.12 0 00-1.803 4.357 6.12 6.12 0 001.803 4.356zM20.365 6.642a1.183 1.183 0 100-2.365 1.183 1.183 0 000 2.365z" stroke="#22BC3E" stroke-width="2"/></svg>