<svg width="61" height="60" fill="none" xmlns="http://www.w3.org/2000/svg"><g clip-path="url(#clip0_82_9574)" fill="#D6A965"><path d="M57.083 30.136H51.65c-.95-10.122-9.029-18.201-19.15-19.15V2a2 2 0 10-4 0v8.985c-10.123.95-18.202 9.03-19.152 19.151h-5.43a2 2 0 000 4h53.165a2 2 0 100-4zM30.5 50.555a2 2 0 00-2 2V58a2 2 0 004 0v-5.445a2 2 0 00-2-2zM14.647 45.16l-3.85 3.85a2 2 0 002.828 2.83l3.85-3.851a2 2 0 00-2.828-2.829zm31.706 0a2 2 0 00-2.829 2.829l3.85 3.85a2 2 0 002.829-2.828l-3.85-3.85zm-15.853.444c5.271 0 9.844-3.045 12.055-7.468H18.443c2.211 4.423 6.784 7.468 12.056 7.468z"/></g><defs><clipPath id="clip0_82_9574"><path fill="#fff" transform="translate(.5)" d="M0 0h60v60H0z"/></clipPath></defs></svg>