<svg width="20" height="20" fill="none" xmlns="http://www.w3.org/2000/svg"><path d="M10 2.292a5.404 5.404 0 00-3.83 1.594 5.455 5.455 0 00-1.587 3.848c0 1.729.448 2.986 2.168 5.093.799.909 1.5 1.9 2.089 2.957.623 1.27.55 2.132 1.16 2.132.61 0 .536-.862 1.16-2.132a17.055 17.055 0 012.088-2.957c1.72-2.107 2.168-3.365 2.168-5.093 0-1.442-.57-2.826-1.586-3.848A5.405 5.405 0 0010 2.29z" stroke="#8A8A8A" stroke-width="2"/><path d="M10 9.792a2.083 2.083 0 100-4.167 2.083 2.083 0 000 4.167z" stroke="#8A8A8A" stroke-width="2"/></svg>