<svg width="37" height="38" fill="none" xmlns="http://www.w3.org/2000/svg"><path d="M19.001 19.751l-.082-.076c-4.074 3.725-10.632 3.732-14.714.008-.016.015-.033.023-.04.038C.073 23.498 0 37.222 0 37.222s14.878-.053 18.968-3.83c.017-.015.025-.03.041-.038-4.033-3.762-4.041-9.84-.008-13.603z" fill="#000"/><path d="M19.024 19.751l.076-.076c3.78 3.725 9.857 3.732 13.644.008.015.015.03.023.038.038 3.795 3.777 3.879 17.501 3.879 17.501S22.842 37.17 19.047 33.4c-.015-.015-.023-.03-.038-.037 3.742-3.77 3.757-9.849.015-13.61z" fill="#018BD4"/><path d="M19.032 19.593l.076.082c3.782-4.01 9.86-4.017 13.65-.008.015-.016.03-.025.038-.04C36.592 15.56 36.66.777 36.66.777S22.844.843 19.047 4.91c-.015.016-.023.032-.038.04 3.744 4.058 3.759 10.594.023 14.643z" fill="#E83A43"/><path d="M18.993 19.593l-.082.082c-4.074-4.01-10.64-4.017-14.714-.008-.016-.016-.033-.025-.041-.04C.066 15.56 0 .777 0 .777S14.878.843 18.968 4.91c.017.016.025.032.041.04-4.041 4.058-4.05 10.594-.016 14.643z" fill="#FFCC03"/></svg>