<svg width="170" height="48" fill="none" xmlns="http://www.w3.org/2000/svg"><path d="M19.084 24.052L19.028 24c-2.786 2.547-7.271 2.552-10.063.005-.011.01-.022.016-.028.026C6.14 26.614 6.09 36 6.09 36s10.175-.036 12.972-2.62c.012-.01.017-.02.028-.025-2.758-2.573-2.763-6.73-.005-9.303z" fill="#000"/><path d="M19.1 24.052l.052-.052a6.652 6.652 0 009.33.005c.01.01.021.016.026.026C31.104 26.614 31.161 36 31.161 36s-9.45-.036-12.046-2.614c-.01-.01-.015-.021-.026-.026 2.56-2.578 2.57-6.735.01-9.308z" fill="#018BD4"/><path d="M19.105 23.944l.052.056c2.586-2.741 6.743-2.747 9.334-.005.011-.012.021-.017.026-.028 2.597-2.781 2.644-12.89 2.644-12.89s-9.45.045-12.046 2.825c-.01.012-.015.023-.026.028 2.56 2.776 2.57 7.245.016 10.014z" fill="#E83A43"/><path d="M19.078 23.944l-.056.056c-2.786-2.741-7.276-2.747-10.062-.005-.012-.012-.023-.017-.028-.028-2.798-2.781-2.843-12.89-2.843-12.89s10.175.045 12.972 2.825c.012.012.017.023.028.028-2.763 2.776-2.769 7.245-.01 10.014z" fill="#FFCC03"/><path d="M45.897 27.185c-.636-1.097-.784-2.414-.784-3.358 0-1.476.431-2.765 1.189-3.687.757-.922 1.846-1.465 3.145-1.465 1.151 0 2.177.307 3.029.702v-4.933l-.263-.06c-.715-.17-1.552-.538-3.324-.538-6.915.017-9.36 5.098-9.371 10.157.01 5.926 3.208 10.14 9.213 10.15 1.11 0 2.03-.164 3.787-.762v-4.977c-1.52.604-2.388.714-2.966.714-1.893 0-3.019-.845-3.655-1.943zm16.527 1.565c-.224.715-.86 1.329-1.543 1.329h-.011c-.69.005-1.27-.625-1.533-1.329-.208-.563-.35-1.57-.35-2.358s.12-1.728.35-2.527c.208-.726.843-1.334 1.533-1.329.69-.005 1.34.608 1.554 1.329.214.715.312 1.649.312 2.443 0 .788-.12 1.834-.312 2.442zm5.88-2.442c-.006-4.903-2.847-7.835-7.429-7.847-4.587.017-7.423 2.944-7.428 7.847.005 4.908 2.846 7.834 7.428 7.846 4.582-.017 7.418-2.944 7.429-7.847zM85.64 28.75c-.251.704-.859 1.329-1.543 1.329h-.01c-.69.005-1.287-.62-1.533-1.329-.213-.624-.35-1.654-.35-2.442 0-.794.137-1.773.35-2.443.23-.715.843-1.334 1.532-1.329.69-.005 1.303.62 1.555 1.329.246.692.328 1.649.328 2.443.005.788-.137 1.919-.328 2.442zm5.878-2.442c-.006-4.903-2.846-7.835-7.432-7.847-4.585.017-7.42 2.944-7.425 7.847.005 4.908 2.845 7.834 7.425 7.846 4.586-.017 7.426-2.944 7.432-7.847zM75.732 13.846h-6.5v19.385h6.5V13.846zm22.504 8.551l-.028.103h-.138v-3.334h-5.26v14.388h5.634v-5.176c0-1.307.362-2.323.956-3.004.593-.686 1.411-1.032 2.311-1.032.379 0 .752.087 1.093.184v-5.581a3.832 3.832 0 00-.835-.114c-1.889-.005-3.272 1.75-3.733 3.566zm57.563-3.08l-2.042 9.045h-.187l-2.471-9.045h-5.831l4.898 14.55-.011.05-.126.47c-.094.383-.538 1.36-2.098 1.35a7.794 7.794 0 01-1.801-.227v3.669c1.329.33 2.85.513 3.997.513 4.151-.01 5.782-2.534 6.732-5.64l4.458-14.73h-5.518v-.005zm-16.428 8.91c-.005 1.729-.966 2.507-1.954 2.507-.972 0-1.669-.665-1.669-1.556.011-1.826 1.812-1.924 2.8-1.924.121 0 .231.006.329.006h.5v.967h-.006zm-1.647-9.24c-1.834 0-4.167.293-6.138.855v3.441c2.317-1 4.387-1.053 4.502-1.053 1.296 0 3.25.237 3.283 1.95v.61h-1.158c-1.664 0-3.728.038-5.364.66-1.67.643-2.883 1.831-2.894 4.284.017 2.361 1.389 4.204 4.502 4.22 1.411-.005 3.284-.319 4.761-2.123h.153v1.783h5.541v-9.158c-.006-4.253-3.635-5.457-7.188-5.468zm-12.904-5.141l-2.416 13.185h-.182l-1.913-13.185h-6.291l-1.566 12.913h-.214l-2.518-12.913h-6.131l4.309 19.385h7.579l1.566-11.803h.166l1.518 11.803h7.531l4.26-19.385h-5.698z" fill="#000"/></svg>