<svg width="26" height="23" fill="none" xmlns="http://www.w3.org/2000/svg"><path d="M8 .399a7.652 7.652 0 00-3.6 1.468l-2.933 2.2A3.667 3.667 0 000 7v11.506c0 2.95 3.369 4.634 5.729 2.864A5.438 5.438 0 018 20.372V.399zm2 19.973c.805.15 1.584.483 2.271.998l.129.097a7.653 7.653 0 003.6 1.468V2.962a5.439 5.439 0 01-2.271-.998l-.129-.097A7.652 7.652 0 0010 .399v19.973zm8-17.41v19.973a7.653 7.653 0 003.6-1.468l2.933-2.2A3.667 3.667 0 0026 16.334V4.828c0-2.95-3.369-4.635-5.729-2.864A5.439 5.439 0 0118 2.962z" fill="#8A8A8A"/></svg>