<svg width="33" height="32" fill="none" xmlns="http://www.w3.org/2000/svg"><path fill-rule="evenodd" clip-rule="evenodd" d="M16.427.001h-.413l-.393.165-6.01 5.943c-.258.339-.17.596.258.596h2.66c.433 0 .774.34.774.766v4.41c0 .427.346.767.774.767h4.374c.516 0 .862-.34.862-.766V7.47c0-.427.34-.766.77-.766h2.488c.429 0 .516-.257.258-.596L16.824.166l-.397-.165zM26.35 9.68c-.129-.17-.258-.232-.356-.2-.098.03-.16.158-.16.37v12.136c0 .216.062.365.16.417.098.051.227.01.356-.16l5.835-5.773c.34-.251.34-.766 0-1.105L26.35 9.68zM6.607 9.345c.108.052.175.2.175.417V22.15c0 .216-.067.344-.175.385-.104.041-.253 0-.429-.128L.256 16.465c-.341-.252-.341-.766 0-1.105l5.922-5.855c.176-.17.325-.211.429-.16zm11.844 9.75h-4.373a.767.767 0 00-.775.767v4.667c0 .51-.34.849-.774.849h-2.49c-.428 0-.598.252-.252.509l5.834 5.855c.17.17.388.257.6.257a.865.865 0 00.604-.257l5.834-5.855c.34-.258.17-.51-.258-.51h-2.318c-.429 0-.77-.339-.77-.848v-4.667c0-.427-.346-.766-.862-.766z" fill="#ED1C24"/></svg>