<svg width="61" height="60" fill="none" xmlns="http://www.w3.org/2000/svg"><path d="M15.5 55h20a5 5 0 005-5v-7.5a2.5 2.5 0 00-5 0V50h-20V22.5a2.5 2.5 0 00-5 0V50a5 5 0 005 5z" fill="#C16D6D"/><path fill-rule="evenodd" clip-rule="evenodd" d="M15.5 10h-5A2.5 2.5 0 008 12.5V20a2.5 2.5 0 002.5 2.5h5A2.5 2.5 0 0018 20v-7.5a2.5 2.5 0 00-2.5-2.5zM23 40V10a5 5 0 015-5h20a5 5 0 015 5v30a5 5 0 01-5 5H28a5 5 0 01-5-5zm13.875-7.775c.346.185.733.28 1.125.275a2.5 2.5 0 002.225-1.375l2.5-5A2.5 2.5 0 0040.5 22.5h-.95l.675-1.375a2.5 2.5 0 00-4.45-2.25l-2.5 5A2.501 2.501 0 0035.5 27.5h.95l-.675 1.375a2.5 2.5 0 001.1 3.35z" fill="#C16D6D"/></svg>