<svg width="61" height="60" fill="none" xmlns="http://www.w3.org/2000/svg"><path fill-rule="evenodd" clip-rule="evenodd" d="M17.375 30c0-6.612 4.89-12.082 11.25-12.992v1.742a1.875 1.875 0 003.75 0v-1.742c6.36.91 11.25 6.38 11.25 12.992 0 6.612-4.89 12.082-11.25 12.992V41.25a1.875 1.875 0 00-3.75 0v1.742c-6.36-.91-11.25-6.38-11.25-12.992zM38 30a2.5 2.5 0 11-5 0 2.5 2.5 0 015 0zm-12.5 2.5a2.5 2.5 0 100-5 2.5 2.5 0 000 5z" fill="#AE9292"/><path fill-rule="evenodd" clip-rule="evenodd" d="M9.161 8.661C5.5 12.322 5.5 18.215 5.5 30c0 11.785 0 17.678 3.661 21.339C12.822 55 18.715 55 30.5 55c11.785 0 17.678 0 21.339-3.661C55.5 47.678 55.5 41.785 55.5 30c0-11.785 0-17.678-3.661-21.339C48.178 5 42.285 5 30.5 5 18.715 5 12.822 5 9.161 8.661zM30.5 13.125c-9.32 0-16.875 7.555-16.875 16.875S21.18 46.875 30.5 46.875 47.375 39.32 47.375 30 39.82 13.125 30.5 13.125z" fill="#AE9292"/></svg>