<svg width="61" height="60" fill="none" xmlns="http://www.w3.org/2000/svg"><g clip-path="url(#clip0_82_9520)"><path d="M19.25 3.75A3.757 3.757 0 0015.5 7.5v3.75h30V7.5a3.757 3.757 0 00-3.75-3.75h-22.5zM8 15C3.84 15 .5 18.34.5 22.5v15C.5 41.66 3.84 45 8 45v-1.25c0 4.087 3.413 7.5 7.5 7.5h30c4.087 0 7.5-3.413 7.5-7.5V45c4.16 0 7.5-3.34 7.5-7.5v-15c0-4.16-3.34-7.5-7.5-7.5H8zm7.5 22.5h30v4h-30v-4z" fill="#E58673"/></g><defs><clipPath id="clip0_82_9520"><path fill="#fff" transform="translate(.5)" d="M0 0h60v60H0z"/></clipPath></defs></svg>