<svg width="23" height="22" fill="none" xmlns="http://www.w3.org/2000/svg"><path fill-rule="evenodd" clip-rule="evenodd" d="M11.22 14.936c-2.556 0-4.628-2.036-4.628-4.552 0-2.515 2.072-4.555 4.628-4.555 2.555 0 4.628 2.04 4.628 4.555 0 2.516-2.073 4.552-4.629 4.552zm7.407 2.357l-3.356-3.304a5.303 5.303 0 001.418-3.605C16.69 7.41 14.24 5 11.22 5 8.2 5 5.75 7.41 5.75 10.384c0 2.971 2.449 5.38 5.47 5.38a5.494 5.494 0 003.442-1.202l3.37 3.316c.164.163.43.163.595 0a.409.409 0 000-.585z" fill="#fff" stroke="#fff" stroke-width=".5"/></svg>