<svg width="28" height="28" fill="none" xmlns="http://www.w3.org/2000/svg"><path fill="#1E1E1E" d="M0 0h28v28H0z"/><g clip-path="url(#clip0_0_1)"><path fill="#fff" d="M-40-140h1440V884H-40z"/><rect width="14" height="90" rx="2" transform="matrix(-1 0 0 1 20.426 -29)" fill="#F0F0F0"/><path d="M15.426 10l-4 6 4 6" stroke="#8A8A8A" stroke-linecap="round"/><path opacity=".4" fill="#000" d="M-40-140h1440v1221H-40z"/><path fill="#fff" d="M-40-140h378V884H-40z"/><path d="M9.4 6.15a3.61 3.61 0 01.717 2.183c0 .767-.25 1.534-.717 2.184a3.782 3.782 0 01-1.867 1.3c-.366.1-.75.183-1.133.183H1.333V0h4.784c.35 0 .7.05 1.033.167.7.2 1.317.633 1.717 1.216.45.567.683 1.3.7 2.034.016.7-.25 1.433-.7 2-.017.033-.05.066-.067.083.217.2.417.417.6.65zM6.1 2.117H3.633v2.55h2.6a1.46 1.46 0 00.75-.467c.184-.217.3-.5.284-.783-.017-.317-.117-.634-.334-.867-.166-.217-.566-.433-.833-.433zm1.733 6.216c.017-.4-.15-.816-.433-1.116-.333-.334-.65-.417-1.033-.417H3.633v3.067h2.734c.366 0 .7-.167.966-.4.334-.284.484-.7.5-1.134zM20.248 3v9h-2.3V6.583l-4 5.417h-2V3h2.3v5.233l4-5.233h2zm9.757 0v2h-2.95v7h-2.267V5h-2.95V3h8.167zm9.284 1.183c.7.884 1.05 2.067 1.05 3.317 0 1.233-.284 2.383-1.05 3.317-.734.916-1.917 1.433-3.1 1.433-.867 0-1.667-.2-2.317-.6V16h-2.284V3h2v.567a4.146 4.146 0 012.484-.817c1.25 0 2.45.483 3.216 1.433zm-1.8 5.25c.316-.466.45-1.166.45-1.933 0-.767-.167-1.467-.484-1.933-.383-.584-.966-.8-1.716-.8-.617 0-1.15.2-1.517.633-.434.5-.633 1.283-.633 2.1 0 .817.2 1.617.633 2.1.4.433.95.633 1.6.633.633 0 1.283-.216 1.666-.8zM44 5.65l-2.067-.983c.05-.067.117-.184.184-.267.816-1.15 2.05-1.633 3.533-1.633 1.65 0 2.983.55 3.717 1.783.35.583.483 1.25.483 1.8V12h-1.983v-1.533c-.167.483-.717.983-1.117 1.216-.633.384-1.417.55-2.1.55-.883 0-1.8-.433-2.283-1-.467-.65-.7-1.1-.7-1.883 0-.967.6-1.917 1.45-2.417 1-.533 1.7-.55 2.983-.75l1.45-.2c-.083-.35-.333-.65-.667-.833-.366-.217-.816-.3-1.283-.283-.583 0-1.067.133-1.417.55-.066.066-.133.15-.183.233zm3.6 2.15l-1.667.317c-.966.183-1.983.366-2.016 1.083-.034.533.45 1 1.183.967.95-.034 2.1-.5 2.383-1.584.1-.366.117-.7.117-.783zM59.427 3v2h-2.95v7H54.21V5h-2.95V3h8.167zm7.55 0h2.267v9h-2.267V8.483h-3.7V12H61.01V3h2.267v3.217h3.7V3zM71.74-.25h2.266v2H71.74v-2zm0 3.25h2.266v9H71.74V3zm15.965 0h2v9h-2.3V7.85L85.372 11h-1.2l-2.034-3.15V12h-2.3V3h2l2.934 4.533L87.705 3zm6.17 2.65l-2.067-.983c.05-.067.117-.184.184-.267.816-1.15 2.05-1.633 3.533-1.633 1.65 0 2.983.55 3.717 1.783.35.583.483 1.25.483 1.8V12h-1.983v-1.533c-.167.483-.717.983-1.117 1.216-.633.384-1.417.55-2.1.55-.883 0-1.8-.433-2.283-1-.467-.65-.7-1.1-.7-1.883 0-.967.6-1.917 1.45-2.417 1-.533 1.7-.55 2.983-.75l1.45-.2c-.083-.35-.333-.65-.667-.833-.366-.217-.816-.3-1.283-.283-.583 0-1.067.133-1.417.55-.066.066-.133.15-.183.233zm3.6 2.15l-1.667.317c-.966.183-1.983.366-2.016 1.083-.034.533.45 1 1.183.967.95-.034 2.1-.5 2.383-1.584.1-.366.117-.7.117-.783zM109.302 3v2h-2.95v7h-2.267V5h-2.95V3h8.167zm3.533 5.117c.067.466.2.9.467 1.25.367.5.983.766 1.633.766.667 0 1.267-.266 1.65-.766.067-.1.1-.2.167-.284l2.25.984c-.15.25-.333.5-.533.733-.9 1-2.2 1.517-3.534 1.45-1.333-.067-2.616-.5-3.45-1.5a4.845 4.845 0 01-1.1-3.25c.034-1.25.35-2.35 1.1-3.25.834-.983 2.117-1.5 3.45-1.5 1.334 0 2.617.5 3.45 1.5.75.9 1.1 2.05 1.1 3.25 0 .2-.016.417-.033.617h-6.617zm2.1-3.25c-.65 0-1.266.25-1.633.766a2.338 2.338 0 00-.367.734h4a2.699 2.699 0 00-.35-.734c-.383-.516-.983-.766-1.65-.766zm14.088-.684c.7.884 1.05 2.067 1.05 3.317 0 1.233-.283 2.383-1.05 3.317-.733.916-1.917 1.433-3.1 1.433-.867 0-1.667-.2-2.317-.6V16h-2.283V3h2v.567a4.145 4.145 0 012.483-.817c1.25 0 2.45.483 3.217 1.433zm-1.8 5.25c.317-.466.45-1.166.45-1.933 0-.767-.167-1.467-.483-1.933-.384-.584-.967-.8-1.717-.8-.617 0-1.15.2-1.517.633-.433.5-.633 1.283-.633 2.1 0 .817.2 1.617.633 2.1.4.433.95.633 1.6.633.634 0 1.284-.216 1.667-.8zm4.845-9.683h2.266v2h-2.266v-2zm0 3.25h2.266v9h-2.266V3zm6.604 2.65l-2.067-.983c.05-.067.117-.184.184-.267.816-1.15 2.05-1.633 3.533-1.633 1.65 0 2.983.55 3.717 1.783.35.583.483 1.25.483 1.8V12h-1.983v-1.533c-.167.483-.717.983-1.117 1.216-.633.384-1.417.55-2.1.55-.883 0-1.8-.433-2.283-1-.467-.65-.7-1.1-.7-1.883 0-.967.6-1.917 1.45-2.417 1-.533 1.7-.55 2.983-.75l1.45-.2c-.083-.35-.333-.65-.667-.833-.366-.217-.816-.3-1.283-.283-.583 0-1.067.133-1.417.55-.066.066-.133.15-.183.233zm3.6 2.15l-1.667.317c-.966.183-1.983.366-2.016 1.083-.034.533.45 1 1.183.967.95-.034 2.1-.5 2.383-1.584.1-.366.117-.7.117-.783zm5.677-4.8h6.683v9h-2.133V5h-2.7l-.533 4.067c-.3 2.283-1.3 3.3-3.417 2.933v-2c1.167 0 1.267-.517 1.383-1.433L147.949 3zm17.315 0v9h-2.3V6.583l-4 5.417h-2V3h2.3v5.233l4-5.233h2zm13.502 0v6.867h.75v3.2h-2.134V12h-5.15v1.067h-2.133v-3.2c.933 0 1.517-1.017 1.767-3.084L172.299 3h6.467zm-2.134 6.867V5h-2.483l-.233 2.033c-.134 1.217-.384 2.267-.834 2.834h3.55zM182.777 3h6.683v9h-2.133V5h-2.7l-.533 4.067c-.3 2.283-1.3 3.3-3.417 2.933v-2c1.167 0 1.267-.517 1.383-1.433L182.777 3zm11.648 0h4.75v9h-2.3V9.133h-1.633L193.858 12h-2.566l1.566-3.217a2.544 2.544 0 01-.666-.466c-.6-.567-.9-1.434-.9-2.267 0-.817.3-1.667.9-2.233.6-.584 1.45-.817 2.233-.817zm2.45 3.983V5.117h-2.367a.953.953 0 00-.65.3.913.913 0 00-.266.633c0 .233.1.45.25.617.166.2.4.316.666.316h2.367zM9.4 19v9H7.133v-6.733h-3.7V28H1.167v-9H9.4zm10.03 1.183c.7.884 1.05 2.067 1.05 3.317 0 1.233-.284 2.383-1.05 3.317-.734.916-1.918 1.433-3.1 1.433-.867 0-1.667-.2-2.317-.6V32h-2.284V19h2v.567a4.145 4.145 0 012.483-.817c1.25 0 2.45.483 3.217 1.433zm-1.8 5.25c.316-.466.45-1.166.45-1.933 0-.767-.167-1.467-.484-1.933-.384-.584-.967-.8-1.717-.8-.617 0-1.15.2-1.516.633-.434.5-.634 1.283-.634 2.1 0 .817.2 1.617.634 2.1.4.433.95.633 1.6.633.633 0 1.283-.216 1.666-.8zM30.606 19v9h-2.3v-5.417l-4 5.417h-2v-9h2.3v5.233l4-5.233h2zm8.308 0h2.266v9h-2.266v-3.517h-3.7V28h-2.267v-9h2.267v3.217h3.7V19zm12.012 0v2h-2.95v7H45.71v-7h-2.95v-2h8.167zm3.533 5.117c.067.466.2.9.467 1.25.367.5.983.766 1.633.766.667 0 1.267-.266 1.65-.766.067-.1.1-.2.167-.284l2.25.984c-.15.25-.333.5-.533.733-.9 1-2.2 1.517-3.534 1.45-1.333-.067-2.616-.5-3.45-1.5a4.84 4.84 0 01-1.1-3.25c.034-1.25.35-2.35 1.1-3.25.834-.983 2.117-1.5 3.45-1.5 1.334 0 2.617.5 3.45 1.5.75.9 1.1 2.05 1.1 3.25 0 .2-.016.417-.033.617H54.46zm2.1-3.25c-.65 0-1.266.25-1.633.766a2.332 2.332 0 00-.367.734h4a2.708 2.708 0 00-.35-.734c-.383-.516-.983-.766-1.65-.766zm14.088-.684c.7.884 1.05 2.067 1.05 3.317 0 1.233-.283 2.383-1.05 3.317-.733.916-1.917 1.433-3.1 1.433-.867 0-1.667-.2-2.317-.6V32h-2.283V19h2v.567a4.146 4.146 0 012.483-.817c1.25 0 2.45.483 3.217 1.433zm-1.8 5.25c.317-.466.45-1.166.45-1.933 0-.767-.167-1.467-.483-1.933-.384-.584-.967-.8-1.717-.8-.617 0-1.15.2-1.517.633-.433.5-.633 1.283-.633 2.1 0 .817.2 1.617.633 2.1.4.433.95.633 1.6.633.634 0 1.284-.216 1.667-.8zm4.845-9.683h2.266v2h-2.266v-2zm0 3.25h2.266v9h-2.266v-9zm4.77.033L82.98 19c.783 0 1.533.183 2.084.617.666.516 1.033 1.216 1.033 2.083 0 .417-.084.817-.267 1.183a3.132 3.132 0 01-.266.384c.3.233.55.533.716.883.183.35.284.767.284 1.167 0 .8-.4 1.6-1.034 2.1-.416.316-1.117.583-1.6.583h-5.467v-8.967zm2.3 1.734v1.883h2.217c.317 0 .533-.1.7-.367.117-.2.15-.4.133-.583-.016-.183-.016-.367-.133-.567-.183-.283-.367-.366-.7-.366h-2.217zm0 3.616v1.884h2.7a.78.78 0 00.684-.367c.116-.2.133-.4.133-.583a1.08 1.08 0 00-.133-.567c-.167-.25-.35-.367-.684-.367h-2.7z" fill="#000"/><path fill="#E9FBE5" d="M-40-14h377v56H-40z"/><g fill="#A28FCE"><path d="M22.165 5.884c-.67-.05-1.424-.05-2.194-.05H8.027c-.77 0-1.524 0-2.195.05v-.05a3.5 3.5 0 013.5-3.5h9.333a3.5 3.5 0 013.5 3.5v.05z"/><path fill-rule="evenodd" clip-rule="evenodd" d="M12.757 14h2.486c1.035 0 1.926 0 2.64.096.764.103 1.497.335 2.092.93.595.594.826 1.327.93 2.092.095.713.095 1.604.095 2.639v.153c0 1.034 0 1.925-.096 2.64-.103.764-.334 1.497-.93 2.091-.594.595-1.327.827-2.092.93-.713.096-1.604.096-2.639.096h-2.486c-1.035 0-1.926 0-2.64-.096-.764-.103-1.497-.335-2.092-.93-.594-.594-.826-1.327-.93-2.092C7 21.836 7 20.944 7 19.91v-.153c0-1.035 0-1.926.096-2.64.103-.764.335-1.497.93-2.092.594-.595 1.327-.826 2.092-.93C10.83 14 11.722 14 12.757 14z"/><path d="M8.089 7c-1.035 0-1.926 0-2.64.096-.764.103-1.497.335-2.092.93-.594.594-.826 1.327-.93 2.092-.095.713-.095 1.604-.095 2.639v2.486c0 1.035 0 1.926.096 2.64.103.764.335 1.497.93 2.092.662.662 1.572.894 2.478.97a78.367 78.367 0 01-.004-.973c0-1.002-.028-2.015.106-3.01.12-.893.413-1.914 1.26-2.762.849-.848 1.87-1.14 2.763-1.26.792-.107 1.748-.107 2.733-.107h2.61c.984 0 1.94 0 2.733.107.893.12 1.914.412 2.762 1.26.847.848 1.14 1.869 1.26 2.762.134.995.106 2.008.106 3.01 0 .33 0 .656-.003.974.905-.077 1.816-.309 2.478-.971.595-.595.827-1.328.93-2.093.096-.713.096-1.604.095-2.639v-2.486c0-1.035 0-1.926-.095-2.64-.103-.764-.335-1.497-.93-2.092-.594-.594-1.328-.826-2.092-.93C21.834 7 20.943 7 19.908 7H8.089z"/></g></g><defs><clipPath id="clip0_0_1"><path fill="#fff" transform="translate(-40 -140)" d="M0 0h1440v1024H0z"/></clipPath></defs></svg>