<svg width="65" height="60" fill="none" xmlns="http://www.w3.org/2000/svg"><g clip-path="url(#clip0_82_9526)"><path d="M43.333 22.5l11.839 4.372c1.029.378 1.703 1.3 1.703 2.32V52.5c0 1.38-1.213 2.5-2.708 2.5H10.833c-1.495 0-2.708-1.12-2.708-2.5V29.192c0-1.022.674-1.942 1.704-2.32L21.667 22.5h21.666zM54.167 35h-32.5v12.5h32.5V35zM43.333 7.5c1.495 0 2.709 1.12 2.709 2.5v10H18.958V10c0-1.38 1.214-2.5 2.709-2.5h21.666z" fill="#A28FCE"/></g><defs><clipPath id="clip0_82_9526"><path fill="#fff" d="M0 0h65v60H0z"/></clipPath></defs></svg>